<svg width="74" height="61" viewBox="0 0 74 61" fill="none" xmlns="http://www.w3.org/2000/svg">
<path d="M31.35 0.799991C32.1 3.04999 32.475 4.92499 32.475 6.425C32.475 7.775 32.25 9.575 31.8 11.825C21.75 11.825 16.725 17 16.725 27.35C16.725 31.1 18.675 33.2 22.575 33.65C28.275 34.1 31.125 37.775 31.125 44.675C31.125 49.925 29.85 53.975 27.3 56.825C24.9 59.525 20.475 60.875 14.025 60.875C5.175 60.875 0.750001 54.875 0.750001 42.875C0.750001 30.875 3.15 20.9 7.95 12.95C12.75 4.84999 20.55 0.799991 31.35 0.799991ZM72.075 0.799991C72.825 3.04999 73.2 4.92499 73.2 6.425C73.2 7.775 72.975 9.575 72.525 11.825C62.475 11.825 57.45 17 57.45 27.35C57.45 31.1 59.4 33.2 63.3 33.65C69 34.1 71.85 37.775 71.85 44.675C71.85 49.925 70.575 53.975 68.025 56.825C65.625 59.525 61.2 60.875 54.75 60.875C45.9 60.875 41.475 54.875 41.475 42.875C41.475 30.875 43.875 20.9 48.675 12.95C53.475 4.84999 61.275 0.799991 72.075 0.799991Z" fill="white"/>
</svg>
